<svg xmlns="http://www.w3.org/2000/svg" viewBox="0 0 310 106.98"><defs><style>.cls-1{fill:#212d3c;}.cls-2{fill:#fe9900;}</style></defs><g id="Capa_2" data-name="Capa 2"><g id="Capa_1-2" data-name="Capa 1"><path class="cls-1" d="M0,78.18c0-14.81,10.33-23.1,28.68-24.46,0,0-.14-2.45-.14-4.35-.27-8-1.36-10.74-4.49-10.74-3.66,0-5,4.22-4.89,12.1,0,0-6.79.27-17,.14C1.49,36.32,8.56,25.59,24.73,25.59c14.82,0,21.21,9.37,21.61,24.6.55,24.59.14,45.52.14,45.52s-4.08.14-13.73.28c0,0,.41-4.49.55-10.2-2.72,7.21-9.11,9.79-15.9,9.79C7.34,95.58,0,89.19,0,78.18ZM29.36,63c-8.7,1.36-11.69,6.93-11.69,12.64,0,4.08,1.49,7.07,5.3,7.07,3.53,0,6.52-3.13,6.52-14.41C29.49,66.49,29.49,64.59,29.36,63Z"/><path class="cls-2" d="M176.07,93s-6.08-.13-17.87,0c0,0-.13-22.2-.4-42.1-.14-4.6-1.08-7.17-3.66-7.17-3.79,0-5.41,4.19-5.41,10-.27,17.87,0,40.75,0,40.75s-8.66.15-18.41.15c0,0,.41-27.21.13-44,0-4.87-.95-7.72-3.79-7.72-3.58,0-5.6,4.68-5.67,10.62.23,20.74.13,42.46.13,42.46s-6.09-.14-17.87,0c0,0-.13-26.94-.4-46.85C102.7,44.4,101.76,42,99.18,42c-3.78,0-5.4,4.2-5.4,10-.28,17.87,0,38.31,0,38.31s-8.67,0-18.42.14c0,0,.41-24.24.13-41,0-4.87-.94-7.72-3.78-7.72-3.66,0-5.69,4.88-5.69,11-.13,16,.41,39.12.41,39.12s-9.48,0-18.15.14c0,0,0-26.95-.4-64.72,0,0,6.22.13,14.89.13,0,0-.27,4.2-.27,9.75,3.25-7,8.94-11.64,16.25-11.64,7.72,0,11.64,5,13.13,11.38,2.84-6.23,8.39-10.43,15.43-10.43,6.46,0,10.21,3.29,12,8.49,3.37-5.07,8.3-8.22,14.34-8.22,7.85,0,11.78,5.15,13.13,11.78,3-6.1,8.4-10.15,15.44-10.15,9.88,0,13.4,7.71,13.54,18C176.21,69.18,176.07,93,176.07,93Z"/><path class="cls-1" d="M177.35,59.83c0-19.51,6.82-34.65,24.7-34.65,19.91,0,25.1,17.33,23.73,40.11,0,0-11.73.14-29.74.41.41,12.14,2.32,17.19,6.41,17.19,3.42,0,5.19-4,5.46-12.28,0,0,9.28.14,18.42.41-1.5,15.69-10.37,25-24,25C182.67,96,177.35,80.57,177.35,59.83ZM196,55.06c3.69,0,7.23-.14,11.05-.27.14-11-1.36-17.47-5.18-17.47S196.45,43.33,196,55.06Z"/><path class="cls-1" d="M252.8,45.85c-.14,23.68.13,50,.13,50s-7.48-.14-17.59.14c0,0-.41-24.52-.41-50.14,0,0-3.05-.14-7.34,0,0,0,.27-5.13,0-17.18,0,0,2.91.28,7.48.42V27.42C235.21,9.28,241.44,0,255.15,0a45.59,45.59,0,0,1,10.67,1.38,155.92,155.92,0,0,0-1.11,16.07,22.49,22.49,0,0,0-3.88-.41c-6,0-7.76,3-7.9,10.38v2.22l11.5.14S264,36,264,46.12C264,46.12,259.86,46,252.8,45.85Z"/><path class="cls-1" d="M278,105.06c2.37-12.39,3.16-18.36,3.16-18.36-8.9-39-14.09-58.59-14.09-58.59,10.14,0,16.34-.68,16.34-.68,2.7,23.89,5.3,39.1,5.3,39.1,3.71-28.73,4.61-42,4.61-42,7.33.45,16.68.79,16.68.79C295.58,91.77,292.65,107,292.65,107,280.93,105.4,278,105.06,278,105.06Z"/></g></g></svg>