<svg xmlns="http://www.w3.org/2000/svg" viewBox="0 0 41.8 41.6"><defs><style>.cls-1{fill:#fff;}</style></defs><g id="Capa_2" data-name="Capa 2"><g id="Capa_1-2" data-name="Capa 1"><path class="cls-1" d="M41.69,24.27l-5.95-8.84a.71.71,0,0,0-.35-.26l-6.68-1.8h0a.47.47,0,0,0-.16,0H13.25a.53.53,0,0,0-.16,0h0l-6.67,1.8a.73.73,0,0,0-.36.26L.11,24.27a.63.63,0,0,0,0,.73.63.63,0,0,0,.52.27l.17,0L6,23.82,3.36,28.54a.69.69,0,0,0,0,.64.67.67,0,0,0,.55.31H6.67V41a.63.63,0,0,0,.64.64H34.5a.63.63,0,0,0,.63-.64V29.49h2.76a.65.65,0,0,0,.54-.31.61.61,0,0,0,0-.64l-2.64-4.72L41,25.25l.17,0a.64.64,0,0,0,.52-1Zm-27.8-2.09V14.61h14v7.57Zm-5.39,0,4.12-6.13v6.13Zm20.68-6.13,4.13,6.13H29.18ZM7,16.34,11.79,15,6.92,22.26,2.11,23.57Zm26.9,24H7.94V29.49H33.87Zm.63-12.12H5l2.68-4.78H34.13l2.68,4.78Zm.39-6L30,15l4.8,1.3,4.87,7.23Z"/><path class="cls-1" d="M26.29,8.55v-1A.64.64,0,0,0,25.65,7a.63.63,0,0,0-.63.62v1h-.95a.63.63,0,1,0,0,1.26H25v1a.63.63,0,0,0,.63.62.63.63,0,0,0,.64-.62v-1h.95a.63.63,0,1,0,0-1.26Z"/><path class="cls-1" d="M17.11,6a.63.63,0,0,0,.63.63h1v.94a.63.63,0,0,0,.62.64A.64.64,0,0,0,20,7.59V6.65h.95a.64.64,0,0,0,0-1.27H20V4.44a.64.64,0,0,0-.64-.64.63.63,0,0,0-.62.64v.94h-1A.63.63,0,0,0,17.11,6Z"/><path class="cls-1" d="M13.93,2.86h1V3.8a.63.63,0,1,0,1.26,0V2.86h1a.65.65,0,0,0,.63-.64.64.64,0,0,0-.63-.64h-1V.64a.63.63,0,1,0-1.26,0v.94h-1a.63.63,0,0,0-.63.64A.64.64,0,0,0,13.93,2.86Z"/><path class="cls-1" d="M23.43,4.12h.95v.94a.64.64,0,1,0,1.27,0V4.12h1a.64.64,0,0,0,.64-.64.62.62,0,0,0-.64-.62h-1v-1a.64.64,0,0,0-1.27,0v1h-.95a.61.61,0,0,0-.63.62A.64.64,0,0,0,23.43,4.12Z"/><path class="cls-1" d="M16.15,12a.64.64,0,0,0,.64-.64v-.94h.95a.64.64,0,0,0,.63-.64.65.65,0,0,0-.63-.64h-.95V8.23a.64.64,0,0,0-.64-.64.64.64,0,0,0-.63.64v.94h-.95a.65.65,0,0,0-.64.64.64.64,0,0,0,.64.64h.95v.94A.63.63,0,0,0,16.15,12Z"/><path class="cls-1" d="M25.33,17.14h-.95v-.95a.63.63,0,0,0-1.26,0v.95h-1a.63.63,0,1,0,0,1.26h1v1a.63.63,0,0,0,1.26,0v-1h.95a.63.63,0,1,0,0-1.26Z"/><path class="cls-1" d="M19.63,18.4h-.94v-1a.64.64,0,0,0-.64-.62.63.63,0,0,0-.63.62v1h-1a.64.64,0,0,0-.64.64.63.63,0,0,0,.64.62h1v1a.63.63,0,0,0,.63.64.64.64,0,0,0,.64-.64v-1h.94a.63.63,0,0,0,.63-.62A.64.64,0,0,0,19.63,18.4Z"/></g></g></svg>