<svg xmlns="http://www.w3.org/2000/svg" viewBox="0 0 134.43 110"><defs><style>.cls-1{fill:#fe9900;}</style></defs><g id="Capa_2" data-name="Capa 2"><g id="Capa_1-2" data-name="Capa 1"><path class="cls-1" d="M24.91,63h84.64a2,2,0,1,0,0-4.05H24.91a2,2,0,1,0,0,4.05Z"/><path class="cls-1" d="M105.14,74.57H29.32a2,2,0,0,0,0,4.05h75.82a2,2,0,1,0,0-4.05Z"/><path class="cls-1" d="M100.73,90.23h-67a2.06,2.06,0,0,0,0,4.11h67a2.06,2.06,0,0,0,0-4.11Z"/><path class="cls-1" d="M134.43,39.2A8.12,8.12,0,0,0,126.3,31h-2.6L95.77.63A2.09,2.09,0,0,0,92.9.51a2.05,2.05,0,0,0-.13,2.9L118.17,31h-42L86.64,20.58a2,2,0,0,0,.45-2.24,2.08,2.08,0,0,0-1.87-1.27H77.15V2a2,2,0,0,0-2-2H59.34a2,2,0,0,0-2.06,2V17.07h-8a2.1,2.1,0,0,0-1.87,1.27,2.06,2.06,0,0,0,.42,2.24L58.22,31H16.29L41.69,3.41a2.08,2.08,0,0,0-.12-2.9,2.1,2.1,0,0,0-2.88.12L10.76,31H8.17A8.12,8.12,0,0,0,6.56,47.12l15.18,53.93a12.28,12.28,0,0,0,11.75,9h67.45a12.28,12.28,0,0,0,11.78-9L127.9,47.12A8.08,8.08,0,0,0,134.43,39.2Zm-75.09-18a2,2,0,0,0,2-2.05V4.07H73.07V19.13a2.05,2.05,0,0,0,2.05,2.05h5.17L67.23,34.24,54.14,21.18ZM108.79,100a8.14,8.14,0,0,1-7.85,5.93H33.49A8.12,8.12,0,0,1,25.67,100L10.85,47.3H123.61ZM126.3,43.25H8.17a4.08,4.08,0,1,1,0-8.16H62.31l3.47,3.5a2.16,2.16,0,0,0,1.45.61,2,2,0,0,0,1.42-.61l3.51-3.5H126.3a4.08,4.08,0,1,1,0,8.16Z"/></g></g></svg>